<mxfile host="app.diagrams.net" agent="Mozilla/5.0 (Windows NT 10.0; Win64; x64) AppleWebKit/537.36 (KHTML, like Gecko) Chrome/131.0.0.0 Safari/537.36" version="25.0.3">
  <diagram name="Page-1" id="AwCaPV22XjQN0I3ddKi-">
    <mxGraphModel dx="808" dy="428" grid="1" gridSize="10" guides="1" tooltips="1" connect="1" arrows="1" fold="1" page="1" pageScale="1" pageWidth="827" pageHeight="1169" math="0" shadow="0">
      <root>
        <mxCell id="0" />
        <mxCell id="1" parent="0" />
        <mxCell id="uxlctuFrlxLcmBPEbr-g-1" value="Payment" style="shape=umlFrame;whiteSpace=wrap;html=1;pointerEvents=0;" parent="1" vertex="1">
          <mxGeometry x="160" y="80" width="400" height="280" as="geometry" />
        </mxCell>
        <mxCell id="uxlctuFrlxLcmBPEbr-g-2" value="" style="edgeStyle=orthogonalEdgeStyle;rounded=0;orthogonalLoop=1;jettySize=auto;html=1;" parent="1" source="uxlctuFrlxLcmBPEbr-g-3" edge="1">
          <mxGeometry relative="1" as="geometry">
            <mxPoint x="255" y="160" as="targetPoint" />
          </mxGeometry>
        </mxCell>
        <mxCell id="uxlctuFrlxLcmBPEbr-g-3" value="" style="ellipse;html=1;shape=startState;fillColor=#000000;strokeColor=#ff0000;" parent="1" vertex="1">
          <mxGeometry x="240" y="100" width="30" height="30" as="geometry" />
        </mxCell>
        <mxCell id="uxlctuFrlxLcmBPEbr-g-4" value="" style="edgeStyle=orthogonalEdgeStyle;rounded=0;orthogonalLoop=1;jettySize=auto;html=1;" parent="1" edge="1">
          <mxGeometry relative="1" as="geometry">
            <Array as="points">
              <mxPoint x="350" y="170" />
              <mxPoint x="350" y="170" />
            </Array>
            <mxPoint x="293.9711431702999" y="170" as="sourcePoint" />
            <mxPoint x="420.0288568297003" y="170" as="targetPoint" />
          </mxGeometry>
        </mxCell>
        <mxCell id="uxlctuFrlxLcmBPEbr-g-7" value="" style="edgeStyle=orthogonalEdgeStyle;rounded=0;orthogonalLoop=1;jettySize=auto;html=1;" parent="1" edge="1">
          <mxGeometry relative="1" as="geometry">
            <mxPoint x="255" y="300" as="sourcePoint" />
            <mxPoint x="255" y="200" as="targetPoint" />
          </mxGeometry>
        </mxCell>
        <mxCell id="uxlctuFrlxLcmBPEbr-g-10" value="&lt;span style=&quot;font-size: 8px;&quot;&gt;Check overdue&lt;/span&gt;" style="text;html=1;align=center;verticalAlign=middle;resizable=0;points=[];autosize=1;strokeColor=none;fillColor=none;" parent="1" vertex="1">
          <mxGeometry x="315" y="150" width="80" height="30" as="geometry" />
        </mxCell>
        <mxCell id="uxlctuFrlxLcmBPEbr-g-11" value="&lt;span style=&quot;font-size: 8px;&quot;&gt;Clear pending payment&lt;/span&gt;" style="text;html=1;align=center;verticalAlign=middle;resizable=0;points=[];autosize=1;strokeColor=none;fillColor=none;rotation=90;" parent="1" vertex="1">
          <mxGeometry x="195" y="238" width="110" height="30" as="geometry" />
        </mxCell>
        <mxCell id="uxlctuFrlxLcmBPEbr-g-14" value="" style="endArrow=classic;html=1;rounded=0;exitX=0.218;exitY=0.89;exitDx=0;exitDy=0;entryX=1;entryY=0.5;entryDx=0;entryDy=0;exitPerimeter=0;" parent="1" edge="1">
          <mxGeometry width="50" height="50" relative="1" as="geometry">
            <mxPoint x="433.6200000000001" y="195.5999999999999" as="sourcePoint" />
            <mxPoint x="299.9999999999982" y="320" as="targetPoint" />
          </mxGeometry>
        </mxCell>
        <mxCell id="uxlctuFrlxLcmBPEbr-g-17" value="&lt;span style=&quot;font-size: 8px;&quot;&gt;Make payment&lt;/span&gt;" style="text;html=1;align=center;verticalAlign=middle;resizable=0;points=[];autosize=1;strokeColor=none;fillColor=none;rotation=-45;" parent="1" vertex="1">
          <mxGeometry x="315" y="238" width="80" height="30" as="geometry" />
        </mxCell>
        <mxCell id="bfRAvJG_7N9yGyxhvkqI-1" value="Clear" style="rounded=1;whiteSpace=wrap;html=1;arcSize=40;" vertex="1" parent="1">
          <mxGeometry x="210" y="160" width="90" height="40" as="geometry" />
        </mxCell>
        <mxCell id="bfRAvJG_7N9yGyxhvkqI-2" value="Pending" style="rounded=1;whiteSpace=wrap;html=1;arcSize=40;" vertex="1" parent="1">
          <mxGeometry x="210" y="300" width="90" height="40" as="geometry" />
        </mxCell>
        <mxCell id="bfRAvJG_7N9yGyxhvkqI-3" value="Overdue" style="rounded=1;whiteSpace=wrap;html=1;arcSize=40;" vertex="1" parent="1">
          <mxGeometry x="420" y="160" width="90" height="40" as="geometry" />
        </mxCell>
      </root>
    </mxGraphModel>
  </diagram>
</mxfile>
